<svg id="visual" viewBox="0 0 1920 400" width="1920" height="400" xmlns="http://www.w3.org/2000/svg" xmlns:xlink="http://www.w3.org/1999/xlink" version="1.1"><path d="M0 302L45.7 305.8C91.3 309.7 182.7 317.3 274.2 322.7C365.7 328 457.3 331 548.8 332.3C640.3 333.7 731.7 333.3 823 330.7C914.3 328 1005.7 323 1097 317.3C1188.3 311.7 1279.7 305.3 1371.2 300.2C1462.7 295 1554.3 291 1645.8 294.8C1737.3 298.7 1828.7 310.3 1874.3 316.2L1920 322L1920 401L1874.3 401C1828.7 401 1737.3 401 1645.8 401C1554.3 401 1462.7 401 1371.2 401C1279.7 401 1188.3 401 1097 401C1005.7 401 914.3 401 823 401C731.7 401 640.3 401 548.8 401C457.3 401 365.7 401 274.2 401C182.7 401 91.3 401 45.7 401L0 401Z" fill="#030712" stroke-linecap="round" stroke-linejoin="miter"></path></svg>