<svg id="visual" viewBox="0 0 1920 400" width="1920" height="400" xmlns="http://www.w3.org/2000/svg" xmlns:xlink="http://www.w3.org/1999/xlink" version="1.1"><path d="M0 336L45.7 339.5C91.3 343 182.7 350 274.2 346.2C365.7 342.3 457.3 327.7 548.8 323.8C640.3 320 731.7 327 823 334C914.3 341 1005.7 348 1097 345C1188.3 342 1279.7 329 1371.2 330.2C1462.7 331.3 1554.3 346.7 1645.8 353.5C1737.3 360.3 1828.7 358.7 1874.3 357.8L1920 357L1920 401L1874.3 401C1828.7 401 1737.3 401 1645.8 401C1554.3 401 1462.7 401 1371.2 401C1279.7 401 1188.3 401 1097 401C1005.7 401 914.3 401 823 401C731.7 401 640.3 401 548.8 401C457.3 401 365.7 401 274.2 401C182.7 401 91.3 401 45.7 401L0 401Z" fill="#030712" stroke-linecap="round" stroke-linejoin="miter"></path></svg>