<svg id="visual" viewBox="0 0 1920 150" width="1920" height="150" xmlns="http://www.w3.org/2000/svg" xmlns:xlink="http://www.w3.org/1999/xlink" version="1.1"><path d="M0 104L53.3 96.7C106.7 89.3 213.3 74.7 320 66.2C426.7 57.7 533.3 55.3 640 61C746.7 66.7 853.3 80.3 960 88.8C1066.7 97.3 1173.3 100.7 1280 101.5C1386.7 102.3 1493.3 100.7 1600 92.7C1706.7 84.7 1813.3 70.3 1866.7 63.2L1920 56L1920 151L1866.7 151C1813.3 151 1706.7 151 1600 151C1493.3 151 1386.7 151 1280 151C1173.3 151 1066.7 151 960 151C853.3 151 746.7 151 640 151C533.3 151 426.7 151 320 151C213.3 151 106.7 151 53.3 151L0 151Z" fill="#f9fafb" stroke-linecap="round" stroke-linejoin="miter"></path></svg>